<?xml version="1.0" encoding="UTF-8" standalone="no"?>
<!-- Created with Inkscape (http://www.inkscape.org/) -->

<svg
   width="33.692905mm"
   height="33.692905mm"
   viewBox="0 0 33.692905 33.692905"
   version="1.1"
   id="svg1"
   xml:space="preserve"
   xmlns="http://www.w3.org/2000/svg"
   xmlns:svg="http://www.w3.org/2000/svg"><defs
     id="defs1" /><g
     id="layer1"
     transform="translate(-81.698966,-118.17852)"><path
       style="fill:#188d52;fill-opacity:1;stroke-width:26.715;stroke-linecap:round;stroke-linejoin:round"
       d="m 95.074035,138.78212 c -0.306265,-0.26264 -0.612713,-0.526 -0.94044,-0.76131 -1.179521,-0.84691 -2.630464,-1.30946 -4.082519,-1.30148 -1.176315,0.006 -2.348505,0.3217 -3.373374,0.89831 -0.397831,0.22383 -0.557938,0.79397 -0.333032,1.19117 0.66697,1.17792 1.691447,2.1536 2.90759,2.74986 1.236017,0.606 2.660344,0.82072 4.020081,0.60603 1.359736,-0.2147 2.648617,-0.85781 3.637791,-1.81516 -0.613202,-0.5211 -1.225237,-1.04358 -1.836097,-1.56742 z"
       id="path3-9"
       transform="rotate(-65.297123,94.502121,137.77725)" /><path
       style="fill:#157c48;fill-opacity:1;stroke-width:26.715;stroke-linecap:round;stroke-linejoin:round"
       d="m 95.074035,138.78212 c -0.306265,-0.26264 -0.612713,-0.526 -0.94044,-0.76131 -1.179521,-0.84691 -2.630464,-1.30946 -4.082519,-1.30148 -1.176315,0.006 -2.348505,0.3217 -3.373374,0.89831 -0.397831,0.22383 -0.557938,0.79397 -0.333032,1.19117 0.66697,1.17792 1.691447,2.1536 2.90759,2.74986 1.236017,0.606 2.660344,0.82072 4.020081,0.60603 1.359736,-0.2147 2.648617,-0.85781 3.637791,-1.81516 -0.613202,-0.5211 -1.225237,-1.04358 -1.836097,-1.56742 z"
       id="path3"
       transform="translate(1.7560798,-0.22709698)" /><path
       style="fill:#188d52;fill-opacity:1;stroke-width:26.715;stroke-linecap:round;stroke-linejoin:round"
       d="m 95.074035,138.78212 c -0.306265,-0.26264 -0.612713,-0.526 -0.94044,-0.76131 -1.179521,-0.84691 -2.630464,-1.30946 -4.082519,-1.30148 -1.176315,0.006 -2.348505,0.3217 -3.373374,0.89831 -0.397831,0.22383 -0.557938,0.79397 -0.333032,1.19117 0.66697,1.17792 1.691447,2.1536 2.90759,2.74986 1.236017,0.606 2.660344,0.82072 4.020081,0.60603 1.359736,-0.2147 2.648617,-0.85781 3.637791,-1.81516 -0.613202,-0.5211 -1.225237,-1.04358 -1.836097,-1.56742 z"
       id="path3-9-6"
       transform="rotate(-140.29712,97.278528,138.18124)" /><path
       style="fill:#157c48;fill-opacity:1;stroke-width:26.715;stroke-linecap:round;stroke-linejoin:round"
       d="m 95.074035,138.78212 c -0.306265,-0.26264 -0.612713,-0.526 -0.94044,-0.76131 -1.179521,-0.84691 -2.630464,-1.30946 -4.082519,-1.30148 -1.452055,0.008 -2.897825,0.48645 -4.067965,1.34628 0.619266,1.50804 1.805374,2.77539 3.269149,3.49306 1.236017,0.606 2.660344,0.82072 4.020081,0.60603 1.150676,-0.18169 2.250609,-0.67018 3.161109,-1.39628 0.274006,-0.21851 0.260078,-0.6029 -0.0068,-0.83025 -0.451503,-0.3846 -0.90237,-0.76996 -1.352599,-1.15605 z"
       id="path3-1"
       transform="rotate(-30,97.106088,114.66305)" /><path
       style="fill:#157c48;fill-opacity:1;stroke-width:26.715;stroke-linecap:round;stroke-linejoin:round"
       d="m 95.074035,138.78212 c -0.306265,-0.26264 -0.612713,-0.526 -0.94044,-0.76131 -1.179521,-0.84691 -2.630464,-1.30946 -4.082519,-1.30148 -1.237938,0.007 -2.471309,0.35558 -3.533211,0.99108 -0.304233,0.18207 -0.428097,0.6231 -0.262019,0.93634 0.662944,1.25038 1.724925,2.28853 2.996414,2.91192 1.236017,0.606 2.660344,0.82072 4.020081,0.60603 1.359736,-0.2147 2.648617,-0.85781 3.637791,-1.81516 -0.613202,-0.5211 -1.225237,-1.04358 -1.836097,-1.56742 z"
       id="path3-1-0"
       transform="matrix(-0.37694905,-0.9571233,1.2454628,-0.28968085,-40.863923,268.64696)" /><path
       style="fill:#c3345a;fill-opacity:1;stroke-width:26.715;stroke-linecap:round;stroke-linejoin:round"
       d="m 93.352169,136.16497 c -1.933204,-2.82518 -3.045126,-6.20542 -3.166629,-9.62655 -0.08537,-2.40381 0.31455,-4.82327 1.162849,-7.07379 0.24473,-0.64926 0.867324,-0.74739 1.314771,-0.21697 0.700344,0.83021 1.353666,1.70009 1.955659,2.60415 1.533575,2.3031 2.732227,4.82883 3.546621,7.47324 l -0.759989,5.8266 z"
       id="path2"
       transform="matrix(1,0,0.03393187,0.75257049,-4.3106473,33.962394)" /><path
       style="fill:#c3345a;fill-opacity:1;stroke-width:26.715;stroke-linecap:round;stroke-linejoin:round"
       d="m 93.352169,136.16497 c -1.933204,-2.82518 -3.045126,-6.20542 -3.166629,-9.62655 -0.08419,-2.37064 0.303605,-4.7565 1.127986,-6.98052 0.260258,-0.70212 0.932792,-0.80813 1.413704,-0.23402 0.676153,0.80718 1.307991,1.65149 1.891589,2.52793 1.533575,2.3031 2.732227,4.82883 3.546621,7.47324 l -0.759989,5.8266 z"
       id="path2-5"
       transform="matrix(-1,0,0.03393187,0.75257049,193.10014,34.11715)" /><path
       style="fill:#d25677;fill-opacity:1;stroke-width:26.715;stroke-linecap:round;stroke-linejoin:round"
       d="m 93.352169,136.16497 c -1.933204,-2.82518 -3.045126,-6.20542 -3.166629,-9.62655 -0.08522,-2.39954 0.313127,-4.81466 1.158323,-7.06177 0.246765,-0.65607 0.875796,-0.75521 1.327578,-0.21917 0.697213,0.82725 1.347758,1.69383 1.947378,2.59433 1.533575,2.3031 2.732227,4.82883 3.546621,7.47324 l -0.759989,5.8266 z"
       id="path2-5-2"
       transform="matrix(-0.98231876,0.1179683,0.19026623,0.74326699,166.5207,23.778818)" /><path
       style="fill:#e4d3d9;fill-opacity:1;stroke-width:26.715;stroke-linecap:round;stroke-linejoin:round"
       d="m 94.492153,129.19839 c -1.004184,0.94735 -1.678731,2.23767 -1.883519,3.60292 -0.204788,1.36525 0.0615,2.7967 0.743535,3.99698 0.769703,1.35456 2.066781,2.40018 3.55383,2.86489 1.48705,0.4647 3.148711,0.34368 4.552731,-0.33158 1.6119,-0.77524 2.85597,-2.27858 3.31599,-4.00706 0.46001,-1.72847 0.12778,-3.65133 -0.88553,-5.12524 -1.01332,-1.47392 -2.68969,-2.47267 -4.468275,-2.66211 -1.778581,-0.18944 -3.627719,0.43379 -4.928762,1.6612 z"
       id="path1" /><path
       style="fill:#cc3f65;fill-opacity:1;stroke-width:26.715;stroke-linecap:round;stroke-linejoin:round"
       d="m 92.951288,117.06614 c -1.274855,1.09891 -2.278956,2.5127 -2.884307,4.08376 -0.770887,2.00067 -0.89119,4.24615 -0.338478,6.31773 0.695642,2.60728 2.468594,4.90944 4.811716,6.24796 L 94.093558,117.6188 c -0.02115,-0.76232 -0.565084,-1.05019 -1.14227,-0.55266 z"
       id="path2-3"
       transform="matrix(0.91543785,-0.30306138,0.40245937,0.68934624,-44.008458,75.86984)" /><path
       style="fill:#cc3f65;fill-opacity:1;stroke-width:26.715;stroke-linecap:round;stroke-linejoin:round"
       d="m 92.908592,117.10315 c -1.254582,1.09356 -2.243034,2.49328 -2.841611,4.04675 -0.770887,2.00067 -0.89119,4.24615 -0.338478,6.31773 0.695642,2.60728 2.468594,4.90944 4.811716,6.24796 l -0.445093,-16.04031 c -0.02202,-0.79352 -0.588636,-1.09329 -1.186534,-0.57213 z"
       id="path2-3-2"
       transform="matrix(-0.91543785,-0.30306138,-0.40245937,0.68934624,241.0121,75.97796)" /><path
       style="fill:#d25677;fill-opacity:1;stroke-width:26.715;stroke-linecap:round;stroke-linejoin:round"
       d="m 93.352169,136.16497 c -0.879794,-0.28643 -1.64796,-0.87338 -2.212956,-1.60609 -0.564997,-0.73271 -0.932864,-1.60618 -1.133373,-2.50944 -0.401019,-1.80652 -0.144653,-3.68917 0.1797,-5.51102 0.399002,-2.24114 0.898934,-4.4643 1.497675,-6.66053 0.245026,-0.89877 0.913645,-1.01706 1.447803,-0.25385 0.512066,0.73164 1.008161,1.47447 1.487801,2.22777 1.486786,2.33509 2.827206,4.80011 3.546621,7.47324 0.265942,0.98816 0.446025,2.01249 0.367625,3.0328 -0.0784,1.02032 -0.433154,2.04219 -1.127614,2.7938 -0.499139,0.54021 -1.162316,0.92481 -1.876695,1.09983 -0.714379,0.17502 -1.477213,0.14118 -2.176587,-0.0865 z"
       id="path2-5-2-1"
       transform="matrix(-0.98763771,0.0778677,0.15675383,0.49061049,171.09116,66.398184)" /><rect
       style="fill:#188d52;fill-opacity:0;stroke:none;stroke-width:12.8736;stroke-linecap:round;stroke-linejoin:round;stroke-opacity:1"
       id="rect12"
       width="33.692909"
       height="33.692909"
       x="81.698967"
       y="118.17853" /></g></svg>
